# AST/ASF file generated using VICON BodyLanguage
# -----------------------------------------------
:version 1.10
:name VICON
:units
  mass 1.0
  length 0.45
  angle deg
:documentation
   .ast/.asf automatically generated from VICON data using
   VICON BodyBuilder and BodyLanguage model FoxedUp or BRILLIANT.MOD
:root
   order TX TY TZ RX RY RZ
   axis XYZ
   position 0 0 0  
   orientation 0 0 0 
:bonedata
  begin
     id 1 
     name lhipjoint
     direction 0.690799 -0.707083 0.151096 
     length 2.54797 
     axis 0 0 0  XYZ
  end
  begin
     id 2 
     name lfemur
     direction 0.34202 -0.939693 0  
     length 7.21646  
     axis 0 0 20  XYZ
    dof rx ry rz
    limits (-160.0 20.0)
           (-70.0 70.0)
           (-60.0 70.0)
  end
  begin
     id 3 
     name ltibia
     direction 0.34202 -0.939693 0   
     length 8.16759   
     axis 0 0 20   XYZ
    dof rx
    limits (-10.0 170.0)
  end
  begin
     id 4 
     name lfoot
     direction 0.0487203 -0.133858 0.989802   
     length 1.93375   
     axis -90 7.62852e-016 20   XYZ
    dof rx rz
    limits (-45.0 90.0)
           (-70.0 20.0)
  end
  begin
     id 5 
     name ltoes
     direction 1.53453e-011 -4.21783e-011 1   
     length 0.979747   
     axis -90 7.62852e-016 20   XYZ
    dof rx
    limits (-90.0 20.0)
  end
  begin
     id 6 
     name rhipjoint
     direction -0.694693 -0.703425 0.150315   
     length 2.56122  
     axis 0 0 0  XYZ 
  end
  begin
     id 7 
     name rfemur
     direction -0.34202 -0.939693 0   
     length 7.36786   
     axis 0 0 -20   XYZ
    dof rx ry rz
    limits (-160.0 20.0)
           (-70.0 70.0)
           (-70.0 60.0)
  end
  begin
     id 8 
     name rtibia
     direction -0.34202 -0.939693 0   
     length 8.07288   
     axis 0 0 -20   XYZ
    dof rx
    limits (-10.0 170.0)
 end
 begin
     id 9 
     name rfoot
     direction -0.0428397 -0.117701 0.992125   
     length 1.88295  
     axis -90 -7.62852e-016 -20   XYZ
    dof rx rz
    limits (-45.0 90.0)
           (-20.0 70.0)
  end
  begin
     id 10 
     name rtoes
     direction -1.53456e-011 -4.2187e-011 1   
     length 0.955578   
     axis -90 -7.62852e-016 -20   XYZ
    dof rx
    limits (-90.0 20.0)
  end
  begin
     id 11 
     name lowerback
     direction 0.0288145 0.999398 -0.0193241   
     length 1.92149   
     axis 0 0 0   XYZ
    dof rx ry rz
    limits (-20.0 45.0)
           (-30.0 30.0)
           (-30.0 30.0)
  end
  begin
     id 12 
     name upperback
     direction 0.0233784 0.998099 0.0570278   
     length 1.90435   
     axis 0 0 0   XYZ
    dof rx ry rz
    limits (-20.0 45.0)
           (-30.0 30.0)
           (-30.0 30.0)
  end
  begin
     id 13 
     name thorax
     direction 0.0096694 0.997833 0.0650817   
     length 1.9111   
     axis 0 0 0   XYZ
    dof rx ry rz
    limits (-20.0 45.0)
           (-30.0 30.0)
           (-30.0 30.0)
  end
  begin
     id 14 
     name lowerneck
     direction 0.00516803 0.999916 0.0118722   
     length 1.74664   
     axis 0 0 0   XYZ
    dof rx ry rz
    limits (-20.0 45.0)
           (-30.0 30.0)
           (-30.0 30.0)
  end
  begin
     id 15 
     name upperneck
     direction -0.0510851 0.996117 -0.071696   
     length 1.68498   
     axis 0 0 0   XYZ
    dof rx ry rz
    limits (-20.0 45.0)
           (-30.0 30.0)
           (-30.0 30.0)
  end
  begin
     id 16
     name head
     direction -0.019188 0.999436 -0.0275702  
     length 1.83483  
     axis 0 0 0   XYZ
    dof rx ry rz
    limits (-20.0 45.0)
           (-30.0 30.0)
           (-30.0 30.0)
  end
  begin
     id 17 
     name lclavicle
     direction 0.967006 0.248456 -0.0562957  
     length 3.39395  
     axis 0 0 0   XYZ
    dof ry rz
    limits (-20.0 10.0)
           (0.0 20.0)
  end
  begin
     id 18 
     name lhumerus
     direction 1 -4.48962e-011 -5.62711e-019   
     length 5.24318   
     axis 180 -30 -90   XYZ
    dof rx ry rz
    limits (-60.0 90.0)
           (-90.0 90.0)
           (-90.0 90.0)
  end
  begin
     id 19
     name lradius
     direction 1 -4.48966e-011 7.90625e-027   
     length 2.98999   
     axis 180 -30 -90   XYZ
    dof rx
    limits (-10.0 170.0)
  end
  begin
     id 20
     name lwrist
     direction 1 -4.48959e-011 1.61068e-026   
     length 1.49499   
     axis -9.31229e-015 90 90   XYZ
    dof ry
    limits (-180.0 0.0)
 end
  begin
     id 21 
     name lhand
     direction 1 -4.49017e-011 3.22136e-026   
     length 0.726745   
     axis -2.0555e-014 90 90   XYZ
    dof rx rz
    limits (-90.0 90.0)
           (-45.0 45.0)
  end
  begin
     id 22 
     name lfingers
     direction 1 -4.4898e-011 6.44272e-026   
     length 0.58592   
     axis -4.11101e-014 90 90   XYZ
    dof rx
    limits (0.0 90.0)
  end
  begin
     id 23
     name lthumb
     direction 0.707107 -6.34922e-011 0.707107   
     length 0.841268   
     axis -90 45 2.85299e-015   XYZ
    dof rx rz
    limits (-45.0 45.0)
           (-45.0 45.0)
  end
  begin
     id 24 
     name rclavicle
     direction -0.972232 0.230238 0.0419005   
     length 3.40416  
     axis 0 0 0   XYZ 
    dof ry rz
    limits (-10.0 20.0)
           (-20.0 0.0)
  end
  begin
     id 25 
     name rhumerus
     direction -1 -4.48976e-011 2.48487e-027  
     length 5.37045   
     axis 180 30 90   XYZ
    dof rx ry rz
    limits (-90.0 60.0)
           (-90.0 90.0)
           (-90.0 90.0)
  end
  begin
     id 26 
     name rradius
     direction -1 -4.48942e-011 7.87951e-027   
     length 2.92792   
     axis 180 30 90   XYZ
    dof rx
    limits (-10.0 170.0)
  end
  begin
     id 27 
     name rwrist
     direction -1 -4.48969e-011 1.61068e-026   
     length 1.46396   
     axis -9.31229e-015 -90 -90   XYZ
    dof ry
    limits (-180.0 0.0)
  end
  begin
     id 28
     name rhand
     direction -1 -4.49043e-011 3.22136e-026   
     length 0.784497   
     axis -2.0555e-014 -90 -90   XYZ
    dof rx rz
    limits (-90.0 90.0)
           (-45.0 45.0)
  end
  begin
     id 29
     name rfingers
     direction -1 -4.48823e-011 6.44272e-026   
     length 0.632482   
     axis -4.11101e-014 -90 -90   XYZ
    dof rx
    limits (0.0 90.0)
  end
  begin
     id 30
     name rthumb
     direction -0.707107 -6.34923e-011 0.707107   
     length 0.908121   
     axis -90 -45 -2.85299e-015   XYZ
    dof rx rz
    limits (-45.0 45.0)
           (-45.0 45.0)
  end
:hierarchy
  begin
    root lhipjoint rhipjoint lowerback
    lhipjoint lfemur
    lfemur ltibia
    ltibia lfoot
    lfoot ltoes
    rhipjoint rfemur
    rfemur rtibia
    rtibia rfoot
    rfoot rtoes
    lowerback upperback
    upperback thorax
    thorax lowerneck lclavicle rclavicle
    lowerneck upperneck
    upperneck head
    lclavicle lhumerus
    lhumerus lradius
    lradius lwrist
    lwrist lhand lthumb
    lhand lfingers
    rclavicle rhumerus
    rhumerus rradius
    rradius rwrist
    rwrist rhand rthumb
    rhand rfingers
  end

#!OML:ASF E:\Style6\Style6.ASF
:FULLY-SPECIFIED
:DEGREES
1604
root 0.967188 18.0738 0.197765 11.0117 -3.42541 4.39423
lowerback 1.73636 -1.67769 6.46691
upperback 7.28164 -2.8266 7.8903
thorax 6.8089 -1.31313 4.60284
lowerneck 2.57805 1.23074 -0.808244
upperneck 3.87633 2.39167 -31.1099
head 1.01073 1.01052 -9.72087
rclavicle -9.54166e-015 7.63333e-014
rhumerus -16.3809 16.5929 -77.7312
rradius 30.8711
rwrist 1.25041
rhand -1.9796 3.45584
rfingers 7.12502
rthumb 23.693 -25.1039
lclavicle -9.54166e-015 7.63333e-014
lhumerus -44.4558 -22.6494 101.473
lradius 62.6698
lwrist 21.875
lhand -4.36347 21.4229
lfingers 7.12502
lthumb 21.4049 50.2605
rfemur -24.937 15.0215 8.65814
rtibia 27.6522
rfoot -16.3048 -24.4843
rtoes 12.4496
lfemur -17.7351 -7.32252 -24.7324
ltibia 19.5526
lfoot -3.58682 14.8603
ltoes -19.34
1605
root 0.964958 18.0745 0.19984 10.9247 -3.39985 4.44694
lowerback 1.71729 -1.68128 6.41656
upperback 7.31077 -2.83557 7.88447
thorax 6.85364 -1.3198 4.62453
lowerneck 2.87398 1.26559 -0.919428
upperneck 3.49001 2.29523 -30.8527
head 0.824694 1.02931 -9.60466
rclavicle -3.18055e-015 3.18055e-015
rhumerus -16.3883 16.4568 -77.6653
rradius 30.8151
rwrist 1.20649
rhand -1.83555 3.59638
rfingers 7.12502
rthumb 23.8311 -24.9454
lclavicle -3.18055e-015 3.18055e-015
lhumerus -44.4254 -22.5807 101.472
lradius 62.6961
lwrist 21.8436
lhand -4.31211 21.4862
lfingers 7.12502
lthumb 21.4542 50.3182
rfemur -24.8032 15.1181 8.6095
rtibia 27.6093
rfoot -16.575 -24.4473
rtoes 13.5243
lfemur -17.589 -7.34907 -24.7876
ltibia 19.4522
lfoot -3.54659 14.8675
ltoes -19.1731
1606
root 0.962153 18.0774 0.203181 10.8478 -3.35626 4.50436
lowerback 1.69775 -1.68251 6.37109
upperback 7.3207 -2.83851 7.86673
thorax 6.87631 -1.32288 4.63036
lowerneck 2.95446 1.28573 -0.925304
upperneck 3.38201 2.28449 -30.7099
head 0.775498 1.04259 -9.55065
rclavicle 3.49861e-014 -1.90833e-014
rhumerus -16.436 16.4509 -77.6421
rradius 30.7569
rwrist 0.968126
rhand -1.79428 3.66872
rfingers 7.12502
rthumb 23.8707 -24.8679
lclavicle 3.49861e-014 -1.90833e-014
lhumerus -44.406 -22.5329 101.437
lradius 62.7322
lwrist 21.8193
lhand -4.16862 21.6423
lfingers 7.12502
lthumb 21.592 50.4585
rfemur -24.6498 15.1521 8.57913
rtibia 27.552
rfoot -16.7361 -24.4547
rtoes 13.9689
lfemur -17.4221 -7.39049 -24.8523
ltibia 19.3477
lfoot -3.51499 14.854
ltoes -19.1256
1607
root 0.959373 18.0816 0.206993 10.7582 -3.30197 4.44735
lowerback 1.70887 -1.67539 6.4307
upperback 7.30381 -2.82818 7.89038
thorax 6.8505 -1.31531 4.62303
lowerneck 2.91547 1.28832 -0.962432
upperneck 3.59154 2.34867 -30.617
head 0.852469 1.04798 -9.51024
rclavicle 0 1.11319e-013
rhumerus -16.5513 16.4941 -77.6231
rradius 30.711
rwrist 0.735882
rhand -1.82105 3.5431
rfingers 7.12502
rthumb 23.845 -24.9969
lclavicle 0 1.11319e-013
lhumerus -44.4746 -22.5034 101.463
lradius 62.7735
lwrist 21.8026
lhand -4.11813 21.6836
lfingers 7.12502
lthumb 21.6405 50.4943
rfemur -24.4736 15.1817 8.69637
rtibia 27.4779
rfoot -16.6218 -24.6016
rtoes 13.0429
lfemur -17.2114 -7.4028 -24.7954
ltibia 19.2206
lfoot -3.55096 14.8067
ltoes -19.0342
1608
root 0.956365 18.0841 0.209434 10.6805 -3.3032 4.41176
lowerback 1.72325 -1.63103 6.46725
upperback 7.28519 -2.76627 7.89737
thorax 6.81854 -1.28303 4.61251
lowerneck 2.83534 1.27824 -1.03204
upperneck 3.84677 2.41045 -30.4779
head 0.949336 1.04386 -9.44689
rclavicle 2.70347e-014 -6.04305e-014
rhumerus -16.7004 16.3448 -77.5997
rradius 30.6769
rwrist 0.656217
rhand -1.8228 3.41847
rfingers 7.12502
rthumb 23.8433 -25.1217
lclavicle 2.70347e-014 -6.04305e-014
lhumerus -44.54 -22.5248 101.51
lradius 62.7685
lwrist 21.7755
lhand -4.04999 21.668
lfingers 7.12502
lthumb 21.706 50.4711
rfemur -24.3418 15.2695 8.76277
rtibia 27.3942
rfoot -16.4791 -24.738
rtoes 12.3009
lfemur -17.0748 -7.40393 -24.755
ltibia 19.125
lfoot -3.56433 14.8336
ltoes -18.9762
1609
root 0.953613 18.0858 0.212446 10.6401 -3.24747 4.43945
lowerback 1.65819 -1.61216 6.46106
upperback 7.27821 -2.74759 7.8915
thorax 6.84769 -1.27333 4.60893
lowerneck 2.77648 1.24913 -1.03798
upperneck 3.98428 2.41317 -30.429
head 0.999958 1.02584 -9.42815
rclavicle -2.22639e-014 -4.77083e-014
rhumerus -16.8113 16.2336 -77.5547
rradius 30.6528
rwrist 0.567411
rhand -1.85531 3.50438
rfingers 7.12502
rthumb 23.8122 -25.0399
lclavicle -2.22639e-014 -4.77083e-014
lhumerus -44.561 -22.5533 101.533
lradius 62.7785
lwrist 21.8016
lhand -4.08209 21.6589
lfingers 7.12502
lthumb 21.6751 50.4656
rfemur -24.223 15.3879 8.74297
rtibia 27.3106
rfoot -16.7392 -24.7907
rtoes 12.9569
lfemur -17.005 -7.50339 -24.7623
ltibia 19.059
lfoot -3.41942 14.8615
ltoes -19.7549
1610
root 0.950949 18.0884 0.214539 10.6023 -3.19826 4.4474
lowerback 1.61743 -1.6156 6.41788
upperback 7.27014 -2.75685 7.91914
thorax 6.86637 -1.28144 4.66159
lowerneck 2.73931 1.19421 -1.01902
upperneck 4.12025 2.37681 -30.4782
head 1.04068 0.990147 -9.45076
rclavicle -1.59028e-015 -2.22639e-014
rhumerus -16.8929 16.1755 -77.5
rradius 30.5982
rwrist 0.448495
rhand -1.98727 3.62408
rfingers 7.12502
rthumb 23.6856 -24.9366
lclavicle -1.59028e-015 -2.22639e-014
lhumerus -44.5249 -22.511 101.548
lradius 62.7572
lwrist 21.8472
lhand -4.18192 21.6099
lfingers 7.12502
lthumb 21.5793 50.4276
rfemur -24.1207 15.5113 8.74629
rtibia 27.2501
rfoot -16.9157 -24.9178
rtoes 13.3719
lfemur -16.9037 -7.55852 -24.7687
ltibia 18.9841
lfoot -3.25656 14.8243
ltoes -20.7243
1611
root 0.94782 18.0904 0.215681 10.5667 -3.16384 4.41445
lowerback 1.58328 -1.61205 6.4166
upperback 7.2518 -2.7562 7.95337
thorax 6.86859 -1.28259 4.69836
lowerneck 2.66746 1.1329 -0.894701
upperneck 4.38566 2.3757 -30.6405
head 1.1324 0.955908 -9.53567
rclavicle -3.18055e-015 -1.90833e-014
rhumerus -16.9925 16.1413 -77.459
rradius 30.5564
rwrist 0.267011
rhand -1.94135 3.55527
rfingers 7.12502
rthumb 23.7296 -24.9997
lclavicle -3.18055e-015 -1.90833e-014
lhumerus -44.5096 -22.431 101.555
lradius 62.7678
lwrist 21.8893
lhand -4.15035 21.6555
lfingers 7.12502
lthumb 21.6096 50.4697
rfemur -24.0462 15.5798 8.80018
rtibia 27.2153
rfoot -16.9221 -24.9769
rtoes 13.5659
lfemur -16.8068 -7.55799 -24.7357
ltibia 18.9159
lfoot -3.26463 14.8195
ltoes -20.4668
1612
root 0.944301 18.0898 0.215691 10.5691 -3.13585 4.35549
lowerback 1.52742 -1.60396 6.44608
upperback 7.23146 -2.75264 7.98729
thorax 6.88 -1.28029 4.7173
lowerneck 2.63298 1.11358 -0.800447
upperneck 4.52863 2.3953 -30.7185
head 1.18436 0.948227 -9.58315
rclavicle -4.77083e-014 -1.27222e-014
rhumerus -17.0828 16.1037 -77.4162
rradius 30.5746
rwrist 0.0857922
rhand -1.75672 3.44295
rfingers 7.12502
rthumb 23.9067 -25.089
lclavicle -4.77083e-014 -1.27222e-014
lhumerus -44.5336 -22.3421 101.566
lradius 62.8472
lwrist 21.9292
lhand -4.1643 21.7145
lfingers 7.12502
lthumb 21.5962 50.5303
rfemur -24.0218 15.6439 8.87197
rtibia 27.1872
rfoot -16.9769 -25.0019
rtoes 14.0037
lfemur -16.8245 -7.58489 -24.6453
ltibia 18.9098
lfoot -3.36736 14.8542
ltoes -19.5263
1613
root 0.941658 18.0885 0.215787 10.5301 -3.13173 4.39945
lowerback 1.50503 -1.58648 6.37886
upperback 7.22556 -2.72927 7.97752
thorax 6.88722 -1.27228 4.74459
lowerneck 2.67144 1.1049 -0.72407
upperneck 4.52975 2.38163 -30.719
head 1.17547 0.945779 -9.59785
rclavicle 3.02153e-014 -5.40694e-014
rhumerus -17.1669 15.9797 -77.3821
rradius 30.5668
rwrist -0.103723
rhand -1.67214 3.39742
rfingers 7.12502
rthumb 23.9878 -25.1238
lclavicle 3.02153e-014 -5.40694e-014
lhumerus -44.549 -22.2641 101.57
lradius 62.8886
lwrist 21.9396
lhand -4.19842 21.594
lfingers 7.12502
lthumb 21.5634 50.4135
rfemur -23.9766 15.6277 8.84442
rtibia 27.1864
rfoot -17.1125 -24.8999
rtoes 14.301
lfemur -16.8002 -7.62068 -24.6729
ltibia 18.9042
lfoot -3.39472 14.8702
ltoes -19.0665
1614
root 0.938791 18.0899 0.217184 10.4504 -3.10572 4.47295
lowerback 1.51117 -1.57747 6.29329
upperback 7.22771 -2.71332 7.95575
thorax 6.88678 -1.2686 4.76955
lowerneck 2.84386 1.11323 -0.692687
upperneck 4.35686 2.32789 -30.6474
head 1.08375 0.953127 -9.57698
rclavicle -4.77083e-015 4.13472e-014
rhumerus -17.2522 15.8166 -77.3515
rradius 30.5281
rwrist -0.260447
rhand -1.71437 3.57569
rfingers 7.12502
rthumb 23.9473 -24.9509
lclavicle -4.77083e-015 4.13472e-014
lhumerus -44.5183 -22.1225 101.589
lradius 62.8145
lwrist 21.8646
lhand -4.19932 21.471
lfingers 7.12502
lthumb 21.5625 50.2906
rfemur -23.8736 15.5774 8.81244
rtibia 27.2016
rfoot -17.1776 -24.8384
rtoes 14.1469
lfemur -16.6663 -7.6229 -24.7578
ltibia 18.8606
lfoot -3.39324 14.8199
ltoes -19.0244
1615
root 0.936686 18.0903 0.218475 10.4392 -3.09325 4.53852
lowerback 1.47007 -1.5636 6.22196
upperback 7.20081 -2.69373 7.93358
thorax 6.88124 -1.26224 4.78469
lowerneck 3.24909 1.13562 -0.761829
upperneck 3.90389 2.18763 -30.4445
head 0.852153 0.965745 -9.4894
rclavicle 9.54166e-015 0
rhumerus -17.3639 15.6467 -77.3223
rradius 30.5328
rwrist -0.372485
rhand -1.69635 3.72068
rfingers 7.12502
rthumb 23.9646 -24.8036
lclavicle 9.54166e-015 0
lhumerus -44.483 -21.9836 101.589
lradius 62.7442
lwrist 21.8147
lhand -4.22326 21.4736
lfingers 7.12502
lthumb 21.5396 50.2959
rfemur -23.8641 15.563 8.7519
rtibia 27.2214
rfoot -17.1722 -24.8732
rtoes 14.09
lfemur -16.588 -7.60248 -24.8403
ltibia 18.7839
lfoot -3.32754 14.7766
ltoes -19.3911
1616
root 0.934248 18.0899 0.219416 10.3987 -3.11071 4.57557
lowerback 1.4829 -1.5471 6.13665
upperback 7.17662 -2.66556 7.93317
thorax 6.84904 -1.25383 4.83269
lowerneck 3.45106 1.16062 -0.878204
upperneck 3.70842 2.14206 -30.2456
head 0.748688 0.979526 -9.39556
rclavicle -2.06736e-014 -6.99722e-014
rhumerus -17.4669 15.5315 -77.2846
rradius 30.4994
rwrist -0.446338
rhand -1.63278 3.8543
rfingers 7.12502
rthumb 24.0256 -24.662
lclavicle -2.06736e-014 -6.99722e-014
lhumerus -44.4555 -21.841 101.565
lradius 62.7279
lwrist 21.7976
lhand -4.21 21.5934
lfingers 7.12502
lthumb 21.5523 50.4142
rfemur -23.8233 15.58 8.72527
rtibia 27.2135
rfoot -17.0035 -24.9451
rtoes 13.7994
lfemur -16.4984 -7.57575 -24.8923
ltibia 18.7098
lfoot -3.23972 14.7606
ltoes -19.9362
1617
root 0.931269 18.0911 0.220104 10.3407 -3.11462 4.61923
lowerback 1.50901 -1.52358 6.05939
upperback 7.1656 -2.62712 7.91771
thorax 6.82168 -1.23908 4.86086
lowerneck 3.45026 1.16763 -0.892497
upperneck 3.74996 2.16231 -30.1281
head 0.763236 0.984974 -9.34997
rclavicle -3.18055e-015 -4.77083e-014
rhumerus -17.5574 15.3322 -77.2612
rradius 30.4767
rwrist -0.499346
rhand -1.47864 3.85226
rfingers 7.12502
rthumb 24.1734 -24.6444
lclavicle -3.18055e-015 -4.77083e-014
lhumerus -44.5348 -21.782 101.561
lradius 62.8233
lwrist 21.7346
lhand -4.28288 21.623
lfingers 7.12502
lthumb 21.4823 50.4518
rfemur -23.7573 15.6714 8.68845
rtibia 27.2023
rfoot -16.9671 -25.0727
rtoes 13.5467
lfemur -16.3888 -7.54976 -24.9437
ltibia 18.6075
lfoot -3.15741 14.7268
ltoes -20.3935
1618
root 0.929536 18.0922 0.22101 10.3 -3.08908 4.5686
lowerback 1.49556 -1.50339 6.11632
upperback 7.17256 -2.60427 7.92728
thorax 6.83477 -1.22449 4.84034
lowerneck 3.34149 1.16129 -0.884953
upperneck 3.85585 2.19362 -30.0398
head 0.818662 0.980591 -9.31839
rclavicle 2.70347e-014 -2.22639e-014
rhumerus -17.6114 15.2008 -77.2088
rradius 30.4614
rwrist -0.539177
rhand -1.36417 3.88793
rfingers 7.12502
rthumb 24.2831 -24.5941
lclavicle 2.70347e-014 -2.22639e-014
lhumerus -44.5967 -21.7118 101.559
lradius 62.9602
lwrist 21.5959
lhand -4.21628 21.6718
lfingers 7.12502
lthumb 21.5463 50.4933
rfemur -23.6836 15.7496 8.75788
rtibia 27.174
rfoot -16.8597 -25.2361
rtoes 12.8853
lfemur -16.3127 -7.55604 -24.8779
ltibia 18.5258
lfoot -3.16565 14.7103
ltoes -20.32
